<?xml version="1.0" standalone="no"?>
<!DOCTYPE svg PUBLIC "-//W3C//DTD SVG 20010904//EN"
 "http://www.w3.org/TR/2001/REC-SVG-20010904/DTD/svg10.dtd">
<svg version="1.0" xmlns="http://www.w3.org/2000/svg"
 width="256.000000pt" height="256.000000pt" viewBox="0 0 256.000000 256.000000"
 preserveAspectRatio="xMidYMid meet">
<metadata>
Created by potrace 1.11, written by Peter Selinger 2001-2013
</metadata>
<g transform="translate(0.000000,256.000000) scale(0.100000,-0.100000)"
fill="#000000" stroke="none">
<path d="M0 1280 l0 -1280 1280 0 1280 0 0 1280 0 1280 -1280 0 -1280 0 0
-1280z m1206 1041 l-28 -29 33 -41 c18 -23 35 -41 39 -41 3 0 19 14 35 30 l29
30 -40 41 c-21 23 -34 40 -28 38 19 -7 424 -433 424 -447 0 -7 -13 -25 -30
-40 l-30 -27 21 -25 21 -25 32 37 c51 59 68 58 126 -4 27 -29 50 -57 50 -62 0
-5 -18 -26 -40 -46 -22 -20 -40 -41 -40 -46 0 -5 28 -38 63 -72 l63 -62 29 30
29 30 -34 35 c-40 41 -46 42 -79 13 -14 -12 -11 -7 7 12 l33 35 210 -215 c115
-118 214 -223 220 -233 9 -16 -1 -29 -68 -93 -43 -40 -85 -74 -93 -74 -13 0
-394 384 -428 431 -11 15 -8 23 18 53 27 31 29 37 18 55 -18 30 -28 27 -78
-24 -34 -35 -46 -42 -57 -33 -11 9 -22 4 -51 -25 -34 -34 -35 -37 -19 -55 12
-13 17 -36 17 -73 l0 -54 -117 -116 c-65 -64 -140 -129 -166 -144 l-48 -28
-39 38 -38 37 -26 -18 c-14 -11 -26 -26 -26 -34 0 -14 -35 -110 -50 -140 -5
-8 -12 -14 -17 -13 -6 1 -34 -22 -63 -52 l-53 -54 24 -20 24 -19 33 29 c20 18
38 26 46 22 29 -18 306 -312 306 -325 0 -15 -152 -158 -169 -158 -10 0 -304
304 -310 321 -2 6 10 25 27 42 l31 32 -20 24 -20 24 -57 -56 c-32 -31 -64 -57
-72 -57 -8 0 -31 16 -51 36 -20 20 -48 41 -60 48 -13 6 -30 24 -39 38 -15 27
-14 28 50 93 61 61 63 66 47 82 -16 16 -18 15 -45 -10 -15 -15 -35 -27 -44
-27 -15 0 -308 299 -317 323 -6 16 161 167 175 159 27 -16 304 -311 304 -324
0 -8 -11 -25 -25 -38 -28 -26 -31 -40 -13 -58 10 -10 25 1 73 47 45 45 78 68
134 91 40 16 77 28 81 25 4 -2 15 4 25 15 17 19 16 21 -19 60 -20 22 -36 42
-36 45 0 13 56 95 65 95 14 0 121 110 128 133 4 9 15 20 24 24 10 3 35 21 56
40 31 28 45 33 86 33 34 0 56 -6 75 -21 l27 -21 32 28 c18 16 34 30 36 31 2 2
-2 10 -9 18 -11 14 -6 23 35 65 l48 49 -24 20 -24 20 -32 -31 c-21 -21 -35
-27 -45 -22 -26 16 -428 438 -428 450 0 12 145 154 157 154 4 0 -6 -13 -21
-29z"/>
<path d="M1108 2223 l-26 -28 37 -42 38 -42 31 32 32 33 -38 37 c-21 20 -40
37 -43 37 -3 0 -17 -12 -31 -27z"/>
<path d="M1315 2200 l-29 -30 39 -40 c22 -22 44 -40 50 -40 6 0 22 11 35 25
l24 26 -45 45 -45 45 -29 -31z"/>
<path d="M1218 2110 l-33 -28 45 -46 44 -46 30 29 30 30 -41 44 -41 45 -34
-28z"/>
<path d="M1435 2080 l-29 -30 44 -45 44 -45 31 30 30 30 -46 45 -45 46 -29
-31z"/>
<path d="M1337 1982 l-27 -28 45 -44 45 -44 30 29 30 29 -42 43 c-23 24 -45
43 -48 43 -4 0 -18 -13 -33 -28z"/>
<path d="M1555 1950 l-29 -30 39 -40 39 -40 30 29 29 29 -32 41 c-18 23 -36
41 -40 41 -4 0 -20 -14 -36 -30z"/>
<path d="M1460 1860 l-34 -30 39 -40 39 -40 28 27 c15 15 28 29 28 32 0 3 -15
23 -33 43 l-32 37 -35 -29z"/>
<path d="M1523 1589 l-21 -22 21 -28 21 -29 28 27 28 27 -22 23 c-26 28 -28
28 -55 2z"/>
<path d="M1762 1547 l-32 -33 40 -39 40 -39 29 29 30 30 -38 42 -38 42 -31
-32z"/>
<path d="M1967 1522 l-27 -28 45 -44 45 -44 30 29 30 29 -42 43 c-23 24 -45
43 -48 43 -4 0 -18 -13 -33 -28z"/>
<path d="M1875 1430 l-29 -30 42 -43 42 -42 30 30 30 31 -43 42 -43 42 -29
-30z"/>
<path d="M2090 1401 l-35 -30 45 -45 44 -46 28 27 c15 15 28 30 28 34 0 3 -17
25 -37 48 l-38 41 -35 -29z"/>
<path d="M455 1390 l-29 -30 35 -37 c19 -21 35 -40 37 -42 1 -3 17 9 35 27
l32 32 -41 40 -40 40 -29 -30z"/>
<path d="M1993 1308 l-33 -34 45 -44 45 -44 31 30 30 31 -43 47 -43 48 -32
-34z"/>
<path d="M357 1293 l-26 -28 39 -41 38 -42 31 32 31 32 -38 37 c-21 20 -40 37
-43 37 -3 0 -17 -12 -32 -27z"/>
<path d="M565 1270 l-29 -30 44 -45 44 -45 30 29 29 30 -38 43 c-21 24 -42 44
-45 46 -3 1 -19 -11 -35 -28z"/>
<path d="M2207 1272 l-27 -28 40 -39 40 -39 30 29 30 29 -37 38 c-20 21 -40
38 -43 38 -4 0 -18 -13 -33 -28z"/>
<path d="M470 1179 l-34 -29 44 -45 44 -45 28 27 c15 15 28 29 28 32 -1 3 -18
25 -38 48 l-37 41 -35 -29z"/>
<path d="M2115 1180 l-29 -30 36 -37 36 -36 31 22 c17 12 31 26 31 30 0 4 -17
24 -38 44 l-38 37 -29 -30z"/>
<path d="M1087 1172 c-16 -17 -16 -20 6 -41 15 -13 30 -19 40 -15 23 9 21 27
-6 52 -23 22 -24 22 -40 4z"/>
<path d="M685 1150 l-29 -30 39 -40 39 -40 30 30 31 30 -41 40 -40 40 -29 -30z"/>
<path d="M911 1103 l-22 -18 41 -40 c37 -36 41 -38 56 -23 15 15 14 19 -16 57
-19 23 -34 41 -36 41 -1 0 -12 -8 -23 -17z"/>
<path d="M587 1052 l-27 -28 40 -39 40 -39 30 29 30 29 -37 38 c-20 21 -40 38
-43 38 -4 0 -18 -13 -33 -28z"/>
<path d="M1026 801 l-28 -30 33 -40 c19 -22 37 -41 40 -41 3 0 18 14 34 30
l29 30 -40 40 -40 40 -28 -29z"/>
<path d="M928 703 l-26 -28 34 -40 35 -39 31 32 32 32 -34 35 c-19 19 -37 35
-40 35 -3 0 -18 -12 -32 -27z"/>
<path d="M1132 682 l-33 -27 46 -45 45 -44 30 30 30 30 -43 42 -43 42 -32 -28z"/>
<path d="M1035 590 l-29 -30 44 -45 44 -45 30 29 30 30 -40 45 c-21 24 -42 45
-45 45 -3 1 -18 -13 -34 -29z"/>
<path d="M1255 560 l-29 -30 39 -40 39 -40 30 30 31 30 -41 40 -40 40 -29 -30z"/>
<path d="M1157 463 l-27 -27 37 -38 36 -37 34 26 34 26 -38 39 c-20 21 -40 38
-43 38 -3 0 -18 -12 -33 -27z"/>
</g>
</svg>
